<?xml version="1.0" standalone="no"?>
<!DOCTYPE svg PUBLIC "-//W3C//DTD SVG 20010904//EN"
 "http://www.w3.org/TR/2001/REC-SVG-20010904/DTD/svg10.dtd">
<svg version="1.0" xmlns="http://www.w3.org/2000/svg"
 width="32.000000pt" height="32.000000pt" viewBox="0 0 32.000000 32.000000"
 preserveAspectRatio="xMidYMid meet">

<g transform="translate(0.000000,32.000000) scale(0.100000,-0.100000)"
fill="#000000" stroke="none">
<path d="M0 267 c0 -29 6 -59 13 -66 10 -11 10 -13 0 -7 -10 6 -13 -16 -13
-93 l0 -101 160 0 160 0 0 160 0 160 -160 0 -160 0 0 -53z m281 -70 c-13 -13
-15 41 -3 70 5 13 8 8 10 -21 2 -21 -1 -43 -7 -49z m-224 26 c-3 -10 -5 -2 -5
17 0 19 2 27 5 18 2 -10 2 -26 0 -35z m168 -14 c-9 -14 -45 -11 -45 4 0 8 3
17 6 20 10 9 46 -12 39 -24z m-111 6 c-6 -16 -34 -21 -34 -7 0 13 11 22 26 22
8 0 11 -6 8 -15z m49 -62 c-6 -15 -19 -17 -27 -4 -7 11 0 18 18 18 8 0 12 -6
9 -14z m-83 -23 c0 -5 -2 -10 -4 -10 -3 0 -8 5 -11 10 -3 6 -1 10 4 10 6 0 11
-4 11 -10z m60 -53 c0 -7 5 -4 11 7 9 14 8 20 -2 27 -7 4 -10 11 -6 15 9 10
44 -22 50 -47 6 -24 -28 -41 -63 -32 -17 5 -21 12 -18 34 3 17 -1 30 -9 33 -7
3 -13 11 -13 17 0 15 50 -38 50 -54z m71 53 c9 13 10 13 6 0 -6 -22 -37 -25
-37 -3 0 15 2 16 10 3 9 -13 11 -13 21 0z m44 0 c3 -5 1 -10 -4 -10 -6 0 -11
5 -11 10 0 6 2 10 4 10 3 0 8 -4 11 -10z m-15 -49 c0 -5 -9 -7 -20 -4 -11 3
-20 7 -20 9 0 2 9 4 20 4 11 0 20 -4 20 -9z"/>
</g>
</svg>
