<?xml version="1.0" encoding="UTF-8"?>
<svg version="1.1" xmlns="http://www.w3.org/2000/svg" width="32" height="32">
<path d="M0 0 C10.56 0 21.12 0 32 0 C32 10.56 32 21.12 32 32 C21.44 32 10.88 32 0 32 C0 21.44 0 10.88 0 0 Z " fill="#3E2D2D" transform="translate(0,0)"/>
<path d="M0 0 C1.32 0.66 2.64 1.32 4 2 C3.67 3.32 3.34 4.64 3 6 C4.32 5.67 5.64 5.34 7 5 C6.42655063 7.86724686 6.1385485 8.8614515 4 11 C6.03241727 10.36020151 6.03241727 10.36020151 8 9 C8.81171228 6.44480079 8.81171228 6.44480079 9 4 C14.625 3.75 14.625 3.75 18 6 C17.6875 7.9375 17.6875 7.9375 17 10 C16.01 10.33 15.02 10.66 14 11 C15.3921875 11.37125 15.3921875 11.37125 16.8125 11.75 C20.18374042 13.07205507 21.39642567 13.79285135 23 17 C22.85242061 19.43505993 22.25645221 20.64662772 20.83203125 22.609375 C18.16762877 24.63182123 16.10666759 24.29376347 12.8125 24.1875 C11.72582031 24.16042969 10.63914062 24.13335938 9.51953125 24.10546875 C8.27236328 24.05326172 8.27236328 24.05326172 7 24 C6.23713764 20.59254812 5.88332721 18.35001838 7 15 C5.68 14.67 4.36 14.34 3 14 C3 15.65 3 17.3 3 19 C2.34 19 1.68 19 1 19 C0.67 17.02 0.34 15.04 0 13 C-0.45375 13.495 -0.9075 13.99 -1.375 14.5 C-3 16 -3 16 -5 16 C-5 12.04 -5 8.08 -5 4 C-3.68 4 -2.36 4 -1 4 C-0.67 2.68 -0.34 1.36 0 0 Z " fill="#74655A" transform="translate(5,3)"/>
<path d="M0 0 C0 2.31 0 4.62 0 7 C0.66 7 1.32 7 2 7 C2 5.35 2 3.7 2 2 C3.65 2.33 5.3 2.66 7 3 C6.67 5.64 6.34 8.28 6 11 C8.97 11.33 11.94 11.66 15 12 C13 14 13 14 9.875 14.125 C8.92625 14.08375 7.9775 14.0425 7 14 C7 14.66 7 15.32 7 16 C10.465 15.505 10.465 15.505 14 15 C13.67 15.66 13.34 16.32 13 17 C6.73 17 0.46 17 -6 17 C-6.48828125 7.234375 -6.48828125 7.234375 -6 4 C-1.94193548 0 -1.94193548 0 0 0 Z " fill="#5A372B" transform="translate(6,15)"/>
<path d="M0 0 C6.6 0 13.2 0 20 0 C16.625 4.5 16.625 4.5 12.8125 5.75 C11.73935547 6.11351562 11.73935547 6.11351562 10.64453125 6.484375 C9.83048828 6.73960937 9.83048828 6.73960937 9 7 C7.68 5.68 6.36 4.36 5 3 C5 5.64 5 8.28 5 11 C4.67 9.68 4.34 8.36 4 7 C2.68 7 1.36 7 0 7 C0 4.69 0 2.38 0 0 Z " fill="#64393F" transform="translate(0,0)"/>
<path d="M0 0 C0.66 0.99 1.32 1.98 2 3 C2.99 3.33 3.98 3.66 5 4 C5 5.65 5 7.3 5 9 C2.85423363 9.02685938 0.70837355 9.04633088 -1.4375 9.0625 C-2.63246094 9.07410156 -3.82742187 9.08570313 -5.05859375 9.09765625 C-8 9 -8 9 -9 8 C-10.66617115 7.95936168 -12.33388095 7.957279 -14 8 C-14.33 7.01 -14.66 6.02 -15 5 C-13.96875 5.061875 -12.9375 5.12375 -11.875 5.1875 C-6.8545239 4.94457374 -3.55659808 3.55659808 0 0 Z " fill="#2F1E16" transform="translate(27,23)"/>
<path d="M0 0 C2.64 0.33 5.28 0.66 8 1 C7.67 2.32 7.34 3.64 7 5 C7.99 5 8.98 5 10 5 C9.67 3.68 9.34 2.36 9 1 C10.5625 2.25 10.5625 2.25 12 4 C11.84762499 6.43800017 11.17726646 7.73876522 9.8125 9.75 C7.21312784 11.54267046 5.07660784 11.20510719 2 11 C1.855625 10.113125 1.71125 9.22625 1.5625 8.3125 C1.08980022 5.52882354 0.56929815 2.76516243 0 0 Z " fill="#58504A" transform="translate(16,16)"/>
<path d="M0 0 C3.3 0 6.6 0 10 0 C10 4.1465813 9.82489209 6.11384292 8.5 9.8125 C8.2215625 10.60269531 7.943125 11.39289062 7.65625 12.20703125 C7.4396875 12.79871094 7.223125 13.39039063 7 14 C6.34 14 5.68 14 5 14 C4.71125 13.21625 4.4225 12.4325 4.125 11.625 C3.15087746 8.90328368 3.15087746 8.90328368 1 7 C1.66 6.01 2.32 5.02 3 4 C2.01 2.68 1.02 1.36 0 0 Z " fill="#5C3A3C" transform="translate(22,0)"/>
<path d="M0 0 C1.32 0 2.64 0 4 0 C4.24954005 1.43410368 4.47392642 2.87260072 4.6875 4.3125 C4.81511719 5.11300781 4.94273437 5.91351563 5.07421875 6.73828125 C5 9 5 9 3.64453125 10.79296875 C2 12 2 12 0 12 C0 8.04 0 4.08 0 0 Z " fill="#CC5C0D" transform="translate(0,7)"/>
<path d="M0 0 C1.98 0.99 1.98 0.99 4 2 C3.67 3.32 3.34 4.64 3 6 C4.32 5.67 5.64 5.34 7 5 C6.44225728 8.23490776 5.62788492 9.97855006 3 12 C2.01 12 1.02 12 0 12 C0 8.04 0 4.08 0 0 Z " fill="#905919" transform="translate(5,3)"/>
<path d="M0 0 C0 3.3 0 6.6 0 10 C0.66 10 1.32 10 2 10 C1.67 10.66 1.34 11.32 1 12 C0.21625 11.649375 -0.5675 11.29875 -1.375 10.9375 C-2.24125 10.628125 -3.1075 10.31875 -4 10 C-4.99 10.495 -4.99 10.495 -6 11 C-6.3125 7.75 -6.3125 7.75 -6 4 C-2 0 -2 0 0 0 Z " fill="#432B2B" transform="translate(6,15)"/>
<path d="M0 0 C5.625 -0.25 5.625 -0.25 9 2 C8.67 3.32 8.34 4.64 8 6 C5.6875 6.625 5.6875 6.625 3 7 C2.01 6.34 1.02 5.68 0 5 C-0.1875 2.375 -0.1875 2.375 0 0 Z " fill="#41352C" transform="translate(14,7)"/>
<path d="M0 0 C0 0.66 0 1.32 0 2 C1.65 2 3.3 2 5 2 C5 2.33 5 2.66 5 3 C2.69 3 0.38 3 -2 3 C-1.938125 3.763125 -1.87625 4.52625 -1.8125 5.3125 C-2 8 -2 8 -3.5 9.8125 C-3.995 10.204375 -4.49 10.59625 -5 11 C-5.99 10.67 -6.98 10.34 -8 10 C-7.2884375 9.3503125 -7.2884375 9.3503125 -6.5625 8.6875 C-4.76313043 6.97690387 -4.76313043 6.97690387 -4 4 C-5.98 4.99 -7.96 5.98 -10 7 C-9.375 4.625 -9.375 4.625 -8 2 C-5.23085693 0.78849991 -3.03028259 0 0 0 Z " fill="#332825" transform="translate(16,4)"/>
<path d="M0 0 C1.65 0.33 3.3 0.66 5 1 C4.67 3.97 4.34 6.94 4 10 C0.16263678 9.04065919 -0.59660228 8.76390737 -3 6 C-2.67 5.34 -2.34 4.68 -2 4 C-1.34 4.33 -0.68 4.66 0 5 C0 3.35 0 1.7 0 0 Z " fill="#6D6761" transform="translate(8,17)"/>
<path d="M0 0 C3.46470949 0.72873963 6.76691126 1.53868671 10 3 C11.625 6.1875 11.625 6.1875 12 9 C10.68 9.33 9.36 9.66 8 10 C8.33 8.68 8.66 7.36 9 6 C6.69 5.34 4.38 4.68 2 4 C2 4.99 2 5.98 2 7 C1.34 7 0.68 7 0 7 C-1.04449911 3.86650268 -0.93423645 3.01031744 0 0 Z " fill="#7D7671" transform="translate(14,12)"/>
<path d="M0 0 C0.33 0 0.66 0 1 0 C1 4.29 1 8.58 1 13 C0.01 13 -0.98 13 -2 13 C-2 12.01 -2 11.02 -2 10 C-2.99 10.33 -3.98 10.66 -5 11 C-5.33 8.69 -5.66 6.38 -6 4 C-5.01 4.495 -5.01 4.495 -4 5 C-4 6.32 -4 7.64 -4 9 C-3.34 9 -2.68 9 -2 9 C-1.855625 7.700625 -1.71125 6.40125 -1.5625 5.0625 C-1.125 1.125 -1.125 1.125 0 0 Z " fill="#462E2F" transform="translate(31,5)"/>
<path d="M0 0 C1.98 0 3.96 0 6 0 C6.33 0.99 6.66 1.98 7 3 C6.34 3 5.68 3 5 3 C5 5.64 5 8.28 5 11 C4.67 9.68 4.34 8.36 4 7 C2.68 7 1.36 7 0 7 C0 4.69 0 2.38 0 0 Z " fill="#703A35" transform="translate(0,0)"/>
<path d="M0 0 C1.485 0.99 1.485 0.99 3 2 C3.33 1.34 3.66 0.68 4 0 C4.66 0 5.32 0 6 0 C6.38218767 1.65614657 6.71395102 3.32457024 7 5 C6 6 6 6 2.9375 6.0625 C1.968125 6.041875 0.99875 6.02125 0 6 C-0.38218767 4.34385343 -0.71395102 2.67542976 -1 1 C-0.67 0.67 -0.34 0.34 0 0 Z " fill="#C2AE91" transform="translate(12,21)"/>
<path d="M0 0 C1.65 0 3.3 0 5 0 C5 2.64 5 5.28 5 8 C3.68 7.67 2.36 7.34 1 7 C0.67 4.69 0.34 2.38 0 0 Z " fill="#323E38" transform="translate(27,19)"/>
<path d="M0 0 C2 3 2 3 3 6 C3.66 6 4.32 6 5 6 C5 6.99 5 7.98 5 9 C5.99 9.33 6.98 9.66 8 10 C5.6875 10.1875 5.6875 10.1875 3 10 C1.97803008 9.02246356 0.98020375 8.0194119 0 7 C-3.10007201 5.79950593 -3.10007201 5.79950593 -6 5 C-4 4 -4 4 -1 4 C-0.67 2.68 -0.34 1.36 0 0 Z " fill="#2B2320" transform="translate(24,9)"/>
<path d="M0 0 C2.64 0.33 5.28 0.66 8 1 C7.67 2.32 7.34 3.64 7 5 C5.02 5 3.04 5 1 5 C0.67 3.35 0.34 1.7 0 0 Z " fill="#60672A" transform="translate(16,16)"/>
<path d="M0 0 C0.66 0 1.32 0 2 0 C2 3.63 2 7.26 2 11 C1.34 11 0.68 11 0 11 C-2.21538462 4.6 -2.21538462 4.6 -1.125 1.5625 C-0.75375 1.046875 -0.3825 0.53125 0 0 Z " fill="#B76C50" transform="translate(27,3)"/>
<path d="M0 0 C0.66 0.99 1.32 1.98 2 3 C2.99 3.33 3.98 3.66 5 4 C5 4.66 5 5.32 5 6 C4.01 6 3.02 6 2 6 C1.34 6.66 0.68 7.32 0 8 C0 7.34 0 6.68 0 6 C-0.66 5.67 -1.32 5.34 -2 5 C-2 2 -2 2 0 0 Z " fill="#251E15" transform="translate(27,23)"/>
<path d="M0 0 C1.98 0 3.96 0 6 0 C6.36923077 4.55384615 6.36923077 4.55384615 4.5 6.8125 C4.005 7.204375 3.51 7.59625 3 8 C2.34 7.67 1.68 7.34 1 7 C1.66 6.01 2.32 5.02 3 4 C2.01 2.68 1.02 1.36 0 0 Z " fill="#684445" transform="translate(22,0)"/>
<path d="M0 0 C1.65 0.33 3.3 0.66 5 1 C4.67 2.32 4.34 3.64 4 5 C2.68 4.67 1.36 4.34 0 4 C0 2.68 0 1.36 0 0 Z " fill="#D17C0F" transform="translate(18,8)"/>
<path d="M0 0 C2.31 0.33 4.62 0.66 7 1 C5.68 2.32 4.36 3.64 3 5 C2.01 4.67 1.02 4.34 0 4 C0 2.68 0 1.36 0 0 Z " fill="#7D756E" transform="translate(18,22)"/>
<path d="M0 0 C1.65 0 3.3 0 5 0 C5.33 0.66 5.66 1.32 6 2 C4.68 2 3.36 2 2 2 C2 3.65 2 5.3 2 7 C1.34 7 0.68 7 0 7 C0 4.69 0 2.38 0 0 Z " fill="#7A746E" transform="translate(6,15)"/>
<path d="M0 0 C1.32 0 2.64 0 4 0 C4.625 2.375 4.625 2.375 5 5 C4.34 5.66 3.68 6.32 3 7 C-0 2.25 -0 2.25 0 0 Z " fill="#B64A14" transform="translate(0,7)"/>
<path d="M0 0 C1.32 0.33 2.64 0.66 4 1 C4 1.99 4 2.98 4 4 C0.7 4 -2.6 4 -6 4 C-6 3.67 -6 3.34 -6 3 C-4.02 3 -2.04 3 0 3 C0 2.01 0 1.02 0 0 Z " fill="#423B27" transform="translate(28,28)"/>
<path d="M0 0 C2.475 0.495 2.475 0.495 5 1 C5 1.99 5 2.98 5 4 C3.35 4 1.7 4 0 4 C0 2.68 0 1.36 0 0 Z " fill="#5F6924" transform="translate(8,17)"/>
<path d="M0 0 C1.98 0.99 1.98 0.99 4 2 C3.01 4.31 2.02 6.62 1 9 C0.67 9 0.34 9 0 9 C0 6.03 0 3.06 0 0 Z " fill="#9B6A57" transform="translate(5,3)"/>
</svg>
