<?xml version="1.0" standalone="no"?>
<!DOCTYPE svg PUBLIC "-//W3C//DTD SVG 20010904//EN"
 "http://www.w3.org/TR/2001/REC-SVG-20010904/DTD/svg10.dtd">
<svg version="1.0" xmlns="http://www.w3.org/2000/svg"
 width="463.000000pt" height="410.000000pt" viewBox="0 0 463.000000 410.000000"
 preserveAspectRatio="xMidYMid meet">
<metadata>
Created by potrace 1.16, written by Peter Selinger 2001-2019
</metadata>
<g transform="translate(0.000000,410.000000) scale(0.100000,-0.100000)"
fill="#000000" stroke="none">
<path d="M0 3549 l0 -552 22 -18 c11 -11 24 -19 28 -19 14 0 43 -53 56 -102
11 -43 10 -53 -4 -79 -9 -16 -22 -27 -29 -24 -7 2 -15 -1 -19 -7 -5 -7 8 -9
40 -5 33 4 45 3 40 -5 -4 -6 -3 -8 4 -4 11 7 62 -13 62 -24 0 -4 -7 -13 -15
-20 -13 -11 -19 -7 -17 11 1 7 -39 20 -72 24 -18 2 -18 2 0 -12 10 -7 25 -11
34 -8 12 5 13 4 2 -7 -7 -7 -20 -13 -30 -13 -21 0 -23 -27 -2 -32 13 -4 13 -3
0 6 -18 12 -9 24 12 16 10 -4 14 -14 11 -26 -3 -10 -10 -16 -17 -12 -6 3 -2
-3 8 -15 11 -12 22 -20 25 -17 3 4 -1 10 -9 15 -10 6 -11 10 -3 10 7 0 10 7 7
15 -5 11 -2 13 9 9 10 -3 13 -12 10 -22 -4 -9 -3 -14 2 -10 4 4 16 3 26 -2 12
-7 20 -6 25 2 4 6 3 8 -3 5 -12 -7 -25 17 -16 27 4 3 15 6 25 6 10 0 18 7 18
15 0 17 -16 20 -25 5 -3 -5 -11 -10 -17 -10 -6 0 -3 9 8 19 19 19 19 19 56
-20 44 -47 58 -91 54 -165 -3 -56 -29 -108 -49 -101 -7 2 -18 -3 -25 -12 -11
-14 -12 -13 -3 5 6 12 7 24 3 28 -3 4 1 4 11 0 13 -5 16 -2 11 10 -3 9 -1 16
5 16 6 0 11 -5 11 -12 0 -9 3 -9 12 0 10 10 10 15 -1 21 -9 6 -10 11 -2 15 8
5 7 12 -4 22 -8 9 -13 20 -10 25 4 5 1 9 -5 9 -6 0 -8 5 -4 12 4 7 3 8 -4 4
-6 -4 -9 -13 -5 -21 3 -9 -1 -15 -11 -15 -9 0 -16 -6 -16 -12 0 -7 -7 -4 -16
7 -12 16 -16 17 -23 6 -5 -7 -10 -9 -12 -3 -2 5 -12 6 -24 1 -19 -7 -19 -8 2
-8 13 -1 24 -9 28 -22 7 -20 7 -20 22 -2 13 16 14 17 9 1 -3 -10 -1 -18 4 -18
6 0 10 7 10 15 0 26 15 16 17 -11 1 -24 -2 -26 -28 -20 -15 3 -30 2 -33 -3 -3
-4 -19 -6 -36 -3 -32 5 -38 -5 -17 -27 10 -11 6 -12 -23 -6 -27 5 -31 4 -20
-5 29 -21 53 -32 46 -22 -3 6 0 12 6 15 10 3 10 7 -1 20 -12 15 -11 17 3 17 9
0 16 -5 16 -10 0 -7 6 -7 20 0 15 8 20 8 20 -1 0 -6 -9 -13 -19 -16 -21 -5
-37 -33 -19 -33 18 0 -24 -41 -57 -55 -25 -10 -33 -10 -48 3 -10 9 -17 10 -17
4 0 -6 4 -13 10 -17 14 -8 1 -33 -21 -40 -18 -6 -19 -18 -19 -202 l0 -195 23
16 c49 35 60 36 20 1 -42 -37 -49 -60 -15 -48 15 6 15 5 3 -10 -7 -9 -17 -14
-22 -11 -5 3 -9 0 -9 -7 0 -6 8 -9 19 -6 26 6 24 -31 -1 -39 -19 -6 -24 -29
-8 -39 6 -3 7 1 4 9 -4 11 0 16 11 16 9 0 13 -5 10 -11 -4 -6 2 -5 14 2 11 8
16 16 12 19 -13 8 -8 59 6 64 9 4 10 -1 3 -20 -12 -31 -12 -34 -1 -34 5 0 14
14 20 31 6 17 15 28 21 24 5 -3 10 -8 10 -11 0 -3 -5 -2 -10 1 -6 3 -10 0 -10
-9 0 -8 -2 -23 -5 -33 -4 -12 -2 -11 6 4 11 21 49 28 49 10 0 -5 -6 -7 -14 -4
-8 3 -17 1 -19 -6 -6 -18 12 -49 25 -41 6 4 8 3 4 -4 -7 -12 33 -44 46 -36 5
3 7 0 6 -7 -2 -6 3 -14 11 -17 8 -2 11 0 8 5 -3 5 -1 15 5 23 8 12 9 12 4 -2
-4 -12 0 -18 12 -19 14 0 14 -2 -2 -8 -14 -5 -16 -10 -7 -15 14 -9 61 19 61
35 0 7 -6 6 -18 -2 -15 -13 -16 -12 -3 4 11 14 11 17 0 18 -8 0 -3 5 11 10 23
10 24 11 8 23 -22 16 -23 23 -3 23 8 0 15 -6 15 -14 0 -7 6 -13 13 -13 7 0 4
-7 -7 -15 -11 -8 -17 -17 -14 -21 6 -6 58 57 58 70 0 4 10 17 23 28 12 11 16
17 10 13 -7 -3 -21 -1 -30 4 -16 9 -15 10 5 11 13 0 20 4 17 10 -3 6 -1 10 5
10 6 0 8 5 5 10 -3 5 -1 10 6 10 7 0 9 -8 6 -21 -3 -13 -1 -19 6 -16 7 2 11
12 11 21 -1 10 1 15 4 12 12 -13 31 17 26 43 -4 19 0 32 15 45 21 19 30 9 10
-11 -7 -7 -7 -13 -1 -17 6 -3 16 7 24 24 7 16 19 30 26 30 7 0 15 6 18 13 2 7
63 62 134 121 72 60 130 112 130 116 0 4 -9 15 -20 25 -21 19 -56 102 -47 111
3 3 10 -11 16 -32 6 -20 23 -54 39 -74 l30 -36 -71 -59 c-166 -140 -214 -184
-245 -226 -115 -153 -219 -279 -238 -289 -19 -11 -28 -9 -61 10 -21 13 -52 37
-70 53 -35 33 -61 32 -106 -4 l-27 -20 0 -594 c0 -562 1 -595 18 -607 36 -25
32 -75 -4 -61 -11 4 -14 -6 -14 -41 0 -45 0 -45 27 -36 26 9 27 9 9 -5 -11 -8
-23 -15 -28 -15 -4 0 -8 -16 -8 -35 0 -24 5 -35 14 -35 8 0 16 -3 18 -7 9 -22
144 -54 278 -66 131 -12 370 -8 435 6 11 3 40 8 65 12 25 4 76 15 114 26 38
10 72 17 74 14 3 -3 0 -5 -7 -5 -7 0 -9 -5 -5 -12 4 -7 4 -10 0 -6 -4 3 -46
-4 -93 -17 -47 -13 -90 -22 -96 -21 -7 2 -9 1 -4 -1 4 -3 7 -12 7 -21 0 -15
-2 -15 -10 -2 -8 13 -10 13 -10 -1 0 -13 -17 -19 -77 -26 -95 -12 -240 -17
-231 -7 4 3 40 7 81 9 77 2 97 8 97 28 0 8 -3 8 -8 2 -7 -10 -38 -14 -167 -20
-74 -3 -78 -5 -40 -16 47 -13 -168 0 -259 16 -43 8 -101 25 -127 38 l-49 24 0
-104 0 -103 56 0 c42 0 60 5 69 17 15 20 64 21 120 2 33 -11 328 -14 1654 -16
l1615 -3 30 29 c35 33 103 64 119 54 5 -3 7 -1 4 4 -8 13 58 22 92 13 13 -3
31 -16 39 -28 13 -20 13 -22 -2 -16 -23 9 -20 -9 4 -24 12 -7 18 -17 15 -22
-3 -6 -1 -10 4 -10 6 0 11 5 11 12 0 9 3 9 12 0 9 -9 112 -12 400 -12 l388 0
0 2050 0 2050 -2315 0 -2315 0 0 -551z m795 216 c-1 -14 2 -25 8 -25 5 0 7 9
4 20 -3 11 -3 20 -1 20 2 0 35 -20 73 -44 59 -38 68 -48 66 -70 -2 -14 1 -26
7 -26 5 0 6 9 3 20 -3 11 -4 20 0 20 3 0 51 -37 105 -81 82 -67 98 -84 90 -99
-6 -12 -5 -17 5 -17 7 0 11 6 8 14 -3 7 -1 13 4 13 12 0 120 -92 150 -128 25
-30 28 -27 13 15 -9 26 -9 27 5 9 8 -11 15 -28 15 -38 0 -10 5 -18 11 -18 5 0
7 -4 4 -10 -3 -5 0 -10 9 -10 8 0 23 -3 33 -6 15 -5 15 -3 -2 7 -24 15 -35 29
-35 47 0 7 20 -9 45 -34 24 -26 42 -51 38 -57 -3 -6 -1 -7 4 -4 10 6 41 -20
32 -26 -2 -2 -38 -9 -79 -15 -41 -6 -87 -14 -101 -18 -23 -5 -31 1 -63 46 -64
89 -207 230 -261 258 -52 26 -209 82 -231 82 -7 0 -11 -7 -10 -15 3 -21 16
-31 16 -12 0 13 8 11 45 -10 41 -23 44 -26 33 -46 -13 -23 -38 -110 -33 -115
1 -1 10 13 19 33 9 19 21 35 26 35 14 0 12 -18 -2 -22 -8 -3 -4 -12 9 -25 12
-12 19 -24 16 -27 -4 -3 -2 -6 4 -6 17 0 22 -37 11 -77 -7 -25 -6 -42 1 -57
12 -23 28 -129 26 -171 0 -14 3 -25 7 -25 4 0 8 -9 8 -21 0 -15 5 -19 15 -15
19 7 19 -3 0 -28 -21 -27 -63 -160 -75 -236 -5 -36 -10 -115 -10 -176 0 -94 4
-120 25 -174 14 -35 22 -72 19 -83 -6 -18 -7 -18 -25 -1 -12 11 -17 25 -13 38
3 14 2 17 -4 8 -10 -15 -20 -6 -46 45 -17 34 -82 275 -91 338 -18 136 -24 197
-25 256 0 61 2 68 30 92 35 31 41 56 8 33 -12 -9 -25 -16 -28 -16 -5 0 5 305
14 400 3 30 5 74 6 98 0 27 4 41 10 37 6 -4 8 -10 6 -14 -3 -3 5 -7 16 -7 19
0 20 4 13 85 -6 75 -5 84 8 73 8 -7 14 -24 12 -37z m3356 -77 c-4 -35 -4 -58
2 -58 5 0 11 9 14 20 3 11 10 20 15 20 6 0 8 -9 5 -20 -3 -11 -1 -18 4 -15 23
15 40 -171 44 -495 6 -409 -8 -503 -91 -626 -14 -20 -23 -39 -20 -41 3 -3 26
6 52 21 25 14 49 26 51 26 17 0 -121 -208 -161 -242 -35 -31 -27 -34 34 -13
24 8 45 14 47 12 2 -3 -17 -21 -42 -41 l-45 -37 -23 23 c-50 50 -50 51 -13
114 19 33 46 97 59 144 14 47 28 93 32 103 4 9 3 17 -1 17 -5 -1 -29 -45 -53
-98 -48 -104 -87 -172 -99 -172 -4 0 -16 15 -27 33 -10 17 -37 57 -60 87 -43
57 -88 130 -80 130 3 0 16 -18 30 -40 14 -23 30 -38 35 -35 5 3 7 0 5 -7 -3
-8 3 -23 13 -34 11 -11 25 -31 32 -45 l13 -24 13 30 c7 17 18 66 24 110 7 44
17 86 23 93 5 7 6 12 0 12 -13 0 -53 -56 -53 -74 0 -20 -33 -85 -42 -86 -12 0
-9 45 2 56 6 6 12 30 13 52 1 40 27 71 27 34 0 -11 7 -6 21 15 11 18 18 40 16
50 -4 14 -5 13 -6 -4 0 -13 -7 -23 -16 -23 -11 0 -12 5 -5 24 9 25 1 38 -30
48 -10 3 -8 6 8 10 12 4 20 2 17 -2 -3 -5 -1 -11 4 -14 5 -3 12 6 15 20 8 29
-1 45 -13 26 -6 -10 -16 -11 -42 -4 -19 6 -26 11 -17 11 22 1 29 42 25 148 -1
50 2 85 8 87 6 3 5 8 -3 14 -16 11 -4 121 18 162 5 10 6 20 3 24 -3 3 -1 6 5
6 7 0 12 8 12 18 0 10 3 22 7 26 8 8 14 30 18 76 2 19 2 27 -1 18 -3 -10 -9
-18 -14 -18 -5 0 -2 16 6 35 7 19 14 45 15 57 0 13 3 17 6 11 2 -7 12 -13 20
-13 12 0 13 3 3 15 -6 8 -9 19 -5 26 4 6 1 15 -6 20 -12 8 -11 11 2 22 8 6 20
21 26 31 10 19 13 18 45 -16 43 -46 52 -59 62 -83 6 -16 9 -17 16 -5 6 9 6 16
-1 18 -15 6 -41 62 -35 77 3 9 0 12 -8 9 -8 -3 -16 4 -19 16 -3 12 -10 19 -16
16 -5 -4 -12 -3 -15 2 -5 9 63 38 79 33 6 -1 3 5 -6 14 -14 15 -22 14 -99 -14
-85 -31 -163 -76 -195 -111 -23 -26 -34 -25 -32 0 1 12 7 18 14 16 7 -3 15 0
19 6 4 6 3 8 -4 4 -17 -10 -25 13 -10 31 12 15 11 15 -9 3 -17 -11 -21 -22
-19 -53 3 -34 -4 -47 -46 -98 -47 -55 -75 -70 -61 -31 6 15 5 15 -10 3 -16
-13 -16 -15 -1 -26 15 -10 10 -19 -36 -77 -28 -36 -58 -76 -66 -89 -35 -61
-65 -135 -71 -174 l-6 -44 -37 47 c-47 60 -98 104 -138 121 l-32 13 33 40 c17
21 45 56 61 76 16 20 26 28 21 17 -20 -52 -17 -61 10 -30 14 17 38 49 52 73
25 42 45 53 23 13 -16 -32 0 -25 50 20 25 22 108 88 185 146 77 58 166 127
197 154 31 27 58 44 60 38 2 -7 38 12 83 42 l80 54 7 -24 c4 -14 4 -51 -1 -83z
m-1240 -684 c235 -44 363 -115 384 -214 14 -69 24 -67 26 5 1 67 1 68 11 30
10 -42 -9 -138 -40 -200 -49 -101 -130 -150 -247 -148 -148 1 -397 89 -479
169 -49 48 -77 112 -81 183 -2 44 -1 47 4 17 8 -49 31 -61 31 -17 0 68 46 132
123 170 52 26 149 28 268 5z m-1256 -24 c14 -5 35 -18 46 -29 30 -27 19 -88
-32 -190 -46 -93 -104 -150 -206 -203 -64 -34 -212 -88 -240 -88 -13 0 -13 26
1 48 5 8 3 11 -5 10 -7 -2 -19 11 -28 27 -9 17 -18 32 -21 35 -9 9 -14 34 -18
91 -5 69 21 131 81 196 53 58 99 81 189 93 75 11 128 6 140 -13 4 -6 10 -8 14
-4 4 3 1 13 -6 22 -11 13 -8 15 23 15 20 0 47 -4 62 -10z m497 -428 c-1 -6 -3
-28 -5 -47 -1 -19 -6 -35 -12 -35 -5 0 -4 -4 4 -9 9 -6 10 -11 2 -15 -6 -4
-11 -2 -11 4 0 7 -7 10 -15 6 -9 -3 -15 0 -15 9 0 8 -8 15 -17 15 -15 0 -15
-2 -4 -9 8 -5 11 -16 8 -26 -4 -9 -11 -14 -15 -11 -5 3 -14 -6 -20 -19 -7 -16
-17 -23 -27 -19 -8 3 -15 1 -15 -5 0 -6 7 -11 15 -11 11 0 12 -5 5 -26 -13
-32 -13 -35 3 -31 7 1 11 -6 8 -18 -1 -11 -3 -50 -3 -87 -1 -37 -5 -65 -9 -62
-5 3 -9 19 -9 36 0 38 -28 195 -39 223 -40 96 -40 101 1 111 18 3 43 13 55 21
13 9 30 13 38 9 8 -3 15 -1 15 5 0 6 15 9 33 7 19 -2 31 -8 29 -16z m105 -4
c15 -6 35 -12 43 -12 8 -1 21 -13 29 -27 14 -25 12 -32 -36 -130 -29 -57 -57
-121 -63 -141 -13 -42 -17 -173 -7 -204 5 -14 1 -27 -14 -43 -12 -12 -19 -24
-16 -27 12 -12 67 88 67 121 0 17 6 25 18 25 14 0 14 2 3 9 -10 7 -12 22 -8
60 6 52 27 108 25 66 -1 -11 2 -30 6 -42 5 -15 3 -23 -4 -23 -6 0 -8 -4 -5
-10 3 -5 1 -10 -4 -10 -6 0 -11 -7 -11 -15 0 -8 5 -15 10 -15 6 0 9 5 8 11 -2
6 2 13 8 16 7 2 10 -7 8 -27 -2 -19 0 -29 7 -25 5 4 7 15 4 26 -4 11 -2 19 4
19 6 0 11 -8 11 -18 0 -12 9 -18 26 -20 l26 -2 -22 18 c-21 17 -21 19 -6 34
24 25 32 75 12 75 -11 0 -14 -6 -11 -18 4 -10 0 -30 -7 -44 -13 -24 -15 -24
-33 -9 -16 13 -17 15 -3 10 18 -5 36 10 18 16 -7 2 -5 17 4 43 8 22 17 49 21
60 5 17 8 16 23 -15 17 -35 48 -47 64 -25 4 5 10 6 14 2 4 -3 -4 -16 -17 -28
-17 -14 -19 -19 -7 -15 10 3 20 0 24 -6 10 -16 22 12 19 42 -4 41 -5 41 -16
34 -7 -4 -10 -1 -7 7 3 8 11 13 18 11 10 -2 10 1 -1 14 -13 16 -14 16 -17 1
-2 -10 -10 -17 -18 -17 -8 0 -14 -5 -14 -11 0 -5 5 -7 10 -4 6 3 10 2 10 -3 0
-5 -8 -12 -18 -14 -12 -4 -18 1 -18 13 0 11 4 19 8 19 4 0 7 3 7 8 -3 19 2 25
11 12 8 -11 9 -7 4 14 -6 26 -5 27 15 17 11 -7 21 -15 21 -19 0 -4 16 -18 34
-30 23 -16 33 -29 29 -40 -3 -12 -2 -13 4 -4 7 9 29 3 94 -28 46 -23 75 -38
64 -34 -69 22 -77 23 -91 9 -9 -9 -10 -16 -4 -20 5 -3 10 -1 10 5 0 6 5 8 10
5 6 -4 8 -15 5 -25 -3 -10 -1 -21 5 -25 14 -9 13 -21 -2 -23 -36 -4 -68 -11
-77 -17 -6 -3 -11 -2 -11 4 0 13 35 32 43 24 3 -3 14 -3 23 1 13 5 14 9 4 21
-7 8 -18 15 -24 15 -6 0 -4 -5 4 -10 13 -8 13 -10 -1 -10 -9 0 -19 7 -23 15
-3 8 -11 15 -18 15 -9 0 -9 -3 0 -12 18 -18 16 -22 -37 -56 -82 -54 -132 -149
-117 -223 3 -19 2 -28 -4 -24 -14 9 -12 -8 4 -30 13 -18 15 -18 67 5 36 16 69
41 98 75 37 43 49 51 70 46 l26 -5 -30 -6 c-17 -3 -29 -12 -27 -19 1 -7 -2
-10 -8 -6 -5 3 -10 1 -10 -4 0 -6 7 -11 15 -11 8 0 15 -4 15 -9 0 -10 -48 -25
-68 -22 -7 1 -11 -3 -10 -9 2 -7 -6 -17 -17 -23 -11 -7 -22 -15 -25 -18 -3 -3
-23 -11 -45 -17 l-40 -11 40 5 c21 3 53 13 70 22 16 9 39 17 50 19 11 2 26 12
34 23 13 20 48 29 36 10 -4 -7 2 -7 18 -1 14 6 29 7 33 3 5 -4 2 2 -6 12 -12
15 -12 18 -1 12 8 -5 16 -3 21 5 7 10 11 10 24 -1 14 -11 16 -10 10 4 -4 11
-1 16 11 16 9 0 13 -5 9 -11 -4 -7 -2 -9 7 -5 8 3 22 9 32 12 26 10 20 22 -8
16 -17 -3 -27 1 -31 12 -3 9 -10 16 -16 16 -5 0 -7 -4 -3 -9 3 -5 1 -12 -4
-15 -5 -3 -12 2 -16 11 -3 10 -2 19 4 21 5 2 8 9 5 17 -3 7 -1 16 5 20 6 3 11
-1 11 -9 0 -9 8 -16 19 -16 11 0 23 -4 26 -10 3 -5 -1 -10 -9 -10 -9 0 -16 -4
-16 -9 0 -6 16 -3 35 5 35 14 35 14 29 -10 -3 -13 -1 -27 4 -30 6 -4 8 2 5 14
-4 14 0 20 11 20 9 0 19 7 22 15 4 8 10 13 14 10 4 -3 11 3 15 12 4 12 -1 24
-15 35 -25 20 -45 24 -34 6 5 -7 3 -8 -6 -3 -9 5 -10 2 -6 -12 7 -23 -18 -51
-29 -33 -3 6 -11 8 -16 5 -5 -4 -9 -2 -9 4 0 6 -8 8 -17 5 -15 -5 -15 -4 -4 4
10 7 21 7 32 1 24 -12 26 -12 25 9 0 9 -10 27 -21 40 -19 22 -22 33 -9 31 4 0
10 5 14 11 6 9 12 9 28 -1 17 -11 24 -11 34 -1 9 9 6 12 -17 12 -24 0 -27 2
-15 11 12 8 10 9 -10 7 -17 -2 -24 1 -22 10 3 17 -20 11 -26 -6 -2 -7 5 -12
15 -13 14 0 15 -2 3 -6 -8 -3 -25 -17 -37 -29 -23 -25 -14 -41 18 -36 9 2 21
-3 27 -10 8 -10 -3 -13 -54 -13 -45 0 -68 -5 -74 -15 -5 -8 -6 -18 -4 -22 3
-4 -2 -5 -10 -2 -9 3 -16 1 -16 -6 0 -6 -5 -8 -10 -5 -6 4 5 22 26 43 20 20
47 51 61 68 13 18 30 31 36 28 7 -2 13 6 13 22 1 14 4 28 7 31 10 9 77 -18 77
-32 0 -14 22 -25 48 -25 10 1 5 7 -13 15 l-30 15 35 -5 c19 -3 105 -8 190 -11
l155 -6 67 30 66 30 24 -25 c12 -14 55 -47 94 -74 39 -27 86 -68 104 -91 l33
-41 -26 5 c-27 5 -36 -5 -17 -17 6 -4 8 -11 5 -16 -4 -5 1 -12 10 -15 9 -4 14
-13 11 -21 -3 -8 -1 -11 4 -8 11 7 70 -25 70 -37 0 -4 6 -8 13 -8 7 0 18 -9
25 -20 7 -12 8 -20 2 -20 -5 0 -10 4 -10 8 0 5 -19 17 -42 28 -24 10 -49 24
-56 31 -26 25 -45 10 -20 -15 20 -20 -2 -13 -24 8 -19 17 -45 25 -70 21 -5 0
-8 3 -8 8 0 5 -8 7 -18 4 -9 -2 -60 10 -112 28 -89 31 -104 33 -235 33 -182 1
-302 -24 -568 -118 -121 -43 -130 -45 -161 -32 -40 17 -50 30 -53 74 -1 18 -9
39 -17 47 -11 12 -12 22 -4 52 13 48 48 117 55 109 3 -3 -4 -24 -16 -46 -12
-23 -17 -39 -11 -35 5 3 10 1 10 -5 0 -6 5 -8 10 -5 6 3 10 0 11 -7 0 -7 7 1
15 19 7 17 18 34 24 38 14 9 12 22 -4 28 -11 4 -13 1 -9 -10 4 -11 2 -14 -5
-9 -16 10 -15 36 1 36 8 0 8 3 -2 9 -17 11 -43 3 -54 -16 -9 -14 -27 -9 -27 8
0 6 5 7 10 4 6 -3 10 -1 10 5 0 17 -25 6 -25 -11 0 -8 -5 -21 -10 -29 -8 -13
-7 -13 8 -1 22 18 22 15 -8 -43 -28 -56 -32 -103 -11 -149 15 -35 28 -80 32
-113 2 -19 -2 -21 -31 -19 -28 3 -32 1 -28 -16 3 -11 9 -22 14 -25 5 -3 9 -16
9 -29 0 -18 -4 -23 -16 -18 -12 4 -11 -1 5 -30 11 -19 17 -38 13 -43 -4 -4 1
-5 10 -1 22 8 31 -18 12 -37 -14 -15 -8 -16 49 -7 16 2 5 19 -29 43 -24 17
-32 28 -24 33 7 4 16 2 20 -5 14 -22 23 8 21 72 -1 40 2 57 10 53 5 -4 8 -26
6 -50 -2 -26 0 -43 6 -42 6 1 15 -17 21 -40 6 -23 18 -48 27 -55 9 -7 20 -26
23 -42 4 -15 14 -35 22 -43 8 -9 12 -18 9 -21 -3 -3 -10 -1 -16 5 -12 12 -49
6 -49 -8 0 -13 -38 -11 -46 2 -4 7 0 9 13 5 15 -5 19 -1 21 19 1 13 -4 28 -12
32 -7 4 -15 15 -18 23 -3 10 -6 8 -10 -8 -4 -12 -3 -20 2 -17 4 3 10 -4 13
-16 5 -17 3 -18 -11 -7 -13 11 -15 11 -10 -3 3 -9 2 -22 -3 -30 -6 -10 -9 -10
-9 -1 0 18 -27 15 -38 -5 -11 -18 5 -66 19 -58 4 3 5 -5 2 -17 -4 -23 -4 -23
11 -3 19 23 15 41 -8 39 -10 -1 -16 6 -16 17 0 19 11 25 23 13 3 -3 28 -7 55
-8 54 -1 105 -32 80 -47 -9 -6 -8 -10 5 -15 11 -4 16 -13 12 -21 -4 -12 1 -14
24 -11 20 3 27 0 24 -8 -2 -7 16 -26 41 -44 25 -17 46 -35 46 -40 0 -6 5 -10
10 -10 7 0 7 6 0 20 -8 14 -8 20 0 20 6 0 10 6 8 13 -2 7 1 12 7 12 5 0 9 -4
8 -10 -2 -6 8 -10 21 -10 17 0 22 4 18 15 -3 8 7 3 23 -12 15 -16 32 -28 37
-28 5 0 -5 14 -23 31 -17 17 -28 33 -25 36 3 4 13 -2 21 -13 13 -16 14 -16 9
-2 -6 18 1 18 78 3 10 -1 36 1 58 6 22 5 57 12 78 14 20 3 50 8 67 12 77 15
204 90 244 144 12 16 27 27 33 23 6 -4 8 -3 5 3 -4 6 9 44 27 84 19 41 32 78
29 83 -3 5 -13 -4 -21 -19 -23 -45 -34 -9 -17 56 8 30 15 69 15 87 0 30 3 33
44 44 25 6 43 15 40 19 -5 8 50 29 76 29 13 0 16 -6 13 -24 -4 -22 -2 -23 39
-22 23 1 49 -5 56 -11 16 -16 32 -17 32 -3 0 6 -4 10 -10 10 -5 0 -10 5 -10
10 0 19 17 10 29 -16 6 -15 14 -24 17 -21 3 3 20 -7 37 -22 18 -16 46 -40 62
-55 l30 -26 -40 19 c-22 11 -53 24 -69 31 -16 6 -26 13 -23 16 3 3 15 0 27 -6
12 -6 25 -9 28 -5 3 3 -4 8 -16 12 -12 3 -22 8 -22 12 0 4 -9 7 -21 8 -15 1
-19 -2 -15 -15 5 -13 3 -13 -9 2 -8 11 -15 24 -15 29 0 4 -5 5 -11 2 -6 -4 -8
-13 -5 -20 3 -8 -2 -11 -15 -8 -24 7 -24 12 -1 29 10 8 12 13 5 14 -7 0 -22
-9 -33 -20 -21 -21 -27 -35 -10 -25 6 3 10 -2 10 -12 0 -13 3 -14 8 -5 7 9 16
10 43 1 41 -14 60 -29 37 -29 -9 0 -20 4 -23 10 -4 6 -13 5 -26 -3 -18 -11
-18 -13 -2 -26 17 -12 16 -13 -4 -8 -27 6 -31 -8 -6 -17 9 -4 19 -2 23 4 4 7
12 6 24 -3 20 -15 12 -49 -10 -40 -12 4 -12 8 -2 21 12 14 11 14 -9 1 -16 -9
-19 -16 -10 -21 13 -8 3 -11 -27 -8 -10 1 -16 -3 -12 -8 3 -5 -8 -15 -24 -22
-24 -10 -28 -15 -19 -26 9 -11 8 -18 -1 -29 -16 -19 -3 -20 16 0 10 9 25 12
43 9 23 -5 30 -2 36 15 3 12 14 21 23 21 15 0 15 2 2 10 -10 6 -17 4 -24 -8
-10 -18 -26 -32 -39 -32 -5 0 -5 5 -1 11 5 9 -1 10 -20 5 -15 -4 -26 -2 -26 4
0 5 11 12 25 16 14 3 25 11 25 18 0 6 5 4 10 -4 7 -11 10 -11 10 -2 0 9 11 12
33 10 26 -2 33 -8 35 -28 1 -14 3 -31 4 -37 2 -21 11 -5 14 24 2 19 -3 33 -18
44 -11 9 -18 21 -14 28 11 18 26 13 19 -6 -6 -16 -5 -16 11 -4 17 14 17 16 0
28 -9 7 -22 10 -27 6 -6 -4 -8 0 -4 9 4 12 1 14 -13 11 -19 -5 -37 14 -25 25
4 4 10 1 12 -5 3 -9 10 -10 24 -3 21 12 64 -4 54 -20 -3 -4 7 -22 21 -39 26
-31 44 -40 44 -21 0 6 -7 10 -16 10 -8 0 -12 5 -9 10 3 6 -1 10 -9 10 -9 0
-16 5 -16 10 0 18 36 -7 60 -40 l21 -30 -30 4 c-17 2 -31 1 -31 -1 0 -13 32
-63 40 -63 14 0 12 11 -6 31 -10 11 -12 19 -5 23 10 7 32 -29 46 -74 8 -25 8
-25 -14 -6 -11 11 -24 16 -28 12 -4 -4 -2 -11 6 -15 7 -5 13 -12 12 -17 0 -5
8 -8 18 -6 24 4 47 -40 32 -64 -8 -14 -11 -15 -11 -4 0 13 -1 13 -10 0 -6 -9
-10 -11 -10 -3 0 7 -6 10 -14 7 -9 -3 -13 3 -13 18 0 31 -13 59 -25 52 -5 -3
-4 -11 3 -20 8 -10 8 -14 0 -14 -6 0 -11 -7 -11 -16 0 -8 5 -12 10 -9 6 4 9 1
8 -5 -4 -13 55 -40 69 -31 6 3 12 12 14 19 6 17 59 -30 59 -52 0 -18 -52 -6
-123 31 -44 22 -48 27 -45 56 3 29 0 32 -22 31 -38 -2 -40 -3 -40 -16 0 -9 3
-9 11 -1 9 9 15 8 25 -2 18 -18 18 -35 -1 -35 -8 0 -15 5 -15 12 0 6 -3 9 -6
5 -4 -3 -29 10 -58 29 -28 18 -57 34 -64 34 -9 0 -12 6 -8 15 3 8 1 15 -4 15
-6 0 -10 -6 -10 -13 0 -14 -38 -16 -60 -2 -10 6 -9 11 5 21 10 8 16 16 13 19
-2 3 -18 -6 -34 -20 -27 -23 -27 -25 -8 -25 23 0 48 -23 37 -34 -4 -3 2 -13
13 -21 23 -18 44 -20 22 -2 -8 6 -18 21 -22 31 -7 20 -7 20 15 0 22 -19 79
-98 79 -108 0 -4 -8 -2 -17 4 -22 11 -147 60 -156 60 -4 0 -7 -5 -7 -11 0 -5
5 -7 10 -4 6 3 10 0 10 -7 0 -8 9 -20 20 -28 24 -17 26 -27 4 -27 -9 0 -20 11
-25 24 -5 13 -10 23 -13 23 -2 0 -11 3 -20 6 -11 4 -16 0 -16 -14 0 -24 16
-38 23 -20 4 10 8 9 16 -2 7 -10 6 -17 -2 -23 -7 -4 4 -6 25 -4 29 4 41 0 57
-20 12 -13 33 -28 47 -33 14 -6 22 -14 19 -20 -3 -5 0 -7 8 -4 8 3 30 -10 51
-29 35 -34 46 -57 26 -57 -5 0 -10 6 -10 14 0 7 -7 19 -15 26 -12 10 -15 10
-15 -3 0 -8 6 -18 13 -20 20 -9 -33 -7 -108 3 -115 15 -416 12 -580 -6 -82 -9
-173 -17 -202 -18 -28 0 -49 -4 -46 -9 2 -4 -4 -7 -13 -7 -36 0 -122 -33 -117
-45 3 -9 15 -10 41 -5 103 22 110 21 130 -13 37 -65 41 -63 -81 -58 -128 4
-141 -12 -17 -23 178 -15 623 -131 646 -168 4 -6 -10 -26 -30 -45 -33 -32 -40
-35 -80 -31 -25 3 -49 1 -54 -4 -10 -10 -42 0 -42 13 0 4 -7 6 -15 3 -10 -4
-15 0 -15 10 0 9 7 19 15 22 8 4 12 10 9 15 -3 5 -1 9 3 9 5 0 13 -8 20 -18
10 -17 8 -18 -15 -15 -15 2 -21 0 -15 -3 7 -3 15 -5 19 -4 4 1 11 -4 15 -12 7
-10 9 -10 9 0 0 7 5 10 10 7 19 -12 10 10 -15 38 -26 27 -33 30 -70 28 l-20
-1 20 9 c11 5 15 10 8 10 -7 1 -10 8 -6 18 5 12 8 13 11 4 4 -11 6 -11 14 0 7
10 8 8 5 -9 -5 -21 3 -26 40 -25 7 1 11 -2 8 -6 -6 -10 33 -7 42 4 5 4 3 5 -4
1 -6 -3 -14 -2 -18 4 -3 6 4 10 17 11 21 0 22 1 3 8 -12 5 -25 3 -33 -6 -17
-16 -17 -16 -33 4 -10 11 -10 14 -1 9 6 -4 12 -3 12 3 0 5 -14 12 -31 16 -23
5 -34 3 -44 -12 -19 -24 -18 -38 3 -70 9 -15 12 -24 6 -20 -14 8 -39 -46 -29
-62 3 -6 -5 -15 -19 -21 -14 -5 -26 -14 -26 -20 0 -6 14 -2 30 10 17 12 30 26
30 31 0 5 5 9 10 9 20 0 9 -19 -24 -45 -27 -20 -38 -24 -57 -16 -13 5 -18 10
-10 10 8 1 11 4 8 7 -8 8 -37 -14 -37 -27 0 -5 6 -9 14 -9 8 0 18 -4 21 -10 8
-13 -19 -1 -67 28 -20 13 -39 29 -42 37 -3 8 -15 15 -26 15 -12 0 -18 5 -15
10 3 6 1 10 -4 10 -6 0 -11 -7 -11 -15 0 -8 -4 -15 -10 -15 -13 0 -13 6 5 40
15 30 39 43 29 16 -3 -7 2 -16 11 -20 9 -3 13 -2 10 4 -3 5 1 7 9 4 8 -3 13
-11 10 -19 -8 -21 20 -24 44 -5 12 10 22 21 22 24 0 13 -23 5 -37 -12 -13 -16
-14 -15 -10 5 3 13 0 23 -6 23 -7 0 -7 4 1 12 10 10 15 10 22 -2 5 -8 12 -11
17 -7 4 5 1 12 -7 17 -11 7 -12 12 -3 21 6 6 9 18 6 25 -8 21 -22 17 -16 -5 3
-10 0 -22 -5 -25 -7 -4 -10 6 -10 24 1 24 5 30 24 30 12 0 25 6 27 13 3 7 6 5
6 -5 1 -10 6 -18 12 -18 5 0 8 4 4 10 -3 5 3 18 15 30 20 20 20 20 0 20 -11 0
-20 -6 -20 -12 0 -10 -2 -10 -8 -1 -4 6 -16 11 -27 10 -11 -1 -19 3 -18 11 2
6 -6 12 -16 12 -11 0 -28 3 -38 7 -10 3 -15 3 -11 -2 4 -4 1 -14 -7 -22 -8 -8
-15 -25 -15 -38 0 -42 -40 -129 -78 -167 -43 -45 -92 -64 -122 -48 -17 9 -27
6 -58 -19 -21 -16 -51 -33 -68 -37 -16 -4 -31 -10 -34 -13 -16 -20 -95 -62
-131 -70 -38 -9 -40 -8 -36 10 3 10 1 19 -5 19 -5 0 -6 5 -3 10 5 8 -30 8 -42
0 -2 -1 -22 -3 -45 -3 -41 -2 -67 -23 -28 -23 11 0 20 3 20 6 0 3 9 6 20 6 24
0 26 -11 4 -20 -32 -12 -82 -6 -88 10 -4 9 -4 19 -1 22 3 3 5 0 5 -7 0 -9 4
-8 15 3 19 18 19 30 1 23 -7 -3 -18 -1 -23 4 -5 5 -31 15 -58 23 -47 15 -49
14 -64 -7 -9 -12 -15 -26 -13 -31 2 -5 -3 -5 -10 1 -7 5 -29 10 -50 10 -20 1
-44 5 -54 11 -13 7 -5 9 31 5 35 -4 46 -3 41 6 -4 6 -12 8 -18 5 -7 -5 -8 -2
-3 5 5 9 13 7 30 -9 18 -17 23 -18 28 -6 4 10 -4 18 -25 25 -52 18 -95 14
-114 -11 -11 -16 -15 -17 -11 -6 4 10 2 18 -3 18 -5 0 -7 6 -4 14 4 10 -6 16
-33 21 -26 4 -42 13 -48 27 -6 12 -17 24 -25 26 -12 4 -13 2 -2 -9 23 -25 12
-28 -24 -7 -51 30 -87 109 -82 181 3 49 2 52 -20 49 -13 -2 -30 2 -38 8 -14
13 -20 69 -6 71 4 0 16 2 27 4 11 3 62 7 113 11 63 5 92 11 92 19 0 19 -20 23
-85 14 -33 -4 -77 -8 -98 -8 l-38 -1 28 53 28 52 65 -3 c35 -1 79 -6 97 -11
18 -5 33 -8 33 -5 0 9 -75 34 -121 40 l-50 7 28 29 c31 33 93 68 119 68 9 0
34 16 55 35 22 19 43 35 49 35 5 0 12 11 16 25 3 14 10 23 14 20 5 -3 11 -1
15 5 3 5 1 10 -4 10 -6 0 -11 5 -11 10 0 6 10 10 23 10 13 0 32 7 43 15 17 13
15 13 -19 4 -22 -6 -41 -9 -43 -6 -2 2 16 18 40 35 25 18 48 41 51 52 7 22 25
18 25 -6 0 -9 -5 -12 -11 -8 -7 4 -6 -3 2 -17 14 -27 14 -27 -8 -52 -9 -9 -13
-20 -9 -24 4 -5 12 0 17 10 6 9 19 17 31 17 15 0 19 -5 15 -20 -6 -24 10 -37
26 -20 9 10 9 11 -1 5 -8 -4 -13 -2 -11 6 4 24 -12 48 -27 42 -20 -8 -17 13 4
29 24 17 25 60 1 48 -16 -9 -29 -4 -29 11 0 5 6 6 14 3 11 -4 13 0 9 16 -4 16
-8 18 -14 8 -7 -11 -11 -10 -18 2 -7 9 -6 19 2 29 7 8 -3 5 -20 -8 -18 -12
-33 -26 -33 -31 0 -5 -8 -11 -17 -13 -17 -4 -17 -5 -1 -6 10 0 22 8 28 19 13
24 26 26 34 4 4 -11 2 -15 -8 -11 -10 4 -13 1 -10 -7 3 -7 -11 -26 -31 -42
-20 -16 -56 -48 -80 -72 -25 -24 -50 -40 -55 -37 -6 3 -10 1 -10 -4 0 -6 -7
-11 -15 -11 -8 0 -15 5 -15 11 0 5 4 8 9 4 5 -3 12 -1 16 5 4 6 10 8 15 5 4
-3 10 5 13 16 3 12 10 18 15 15 5 -3 20 6 32 19 l23 25 -24 0 c-13 0 -31 -5
-39 -11 -12 -8 -10 -9 8 -4 27 8 29 -1 2 -15 -12 -6 -27 -7 -35 -2 -13 7 -13
11 4 29 11 11 17 24 13 27 -3 4 1 4 9 1 11 -4 19 0 22 12 18 53 44 104 60 115
16 12 40 102 30 112 -3 3 -6 40 -8 83 -2 45 -7 79 -14 81 -6 2 -9 8 -5 13 3 5
1 8 -5 7 -5 -2 -17 6 -25 17 l-16 20 7 -20 c4 -11 13 -26 20 -33 8 -9 13 -40
13 -88 0 -71 -1 -75 -26 -84 -35 -14 -30 -16 -124 40 -102 60 -209 103 -345
138 -92 23 -106 24 -180 14 -143 -20 -225 -36 -225 -45 0 -5 6 -7 13 -4 7 2
33 -6 57 -20 34 -18 38 -23 18 -18 -19 4 -27 1 -24 -7 1 -7 1 -10 -1 -6 -2 4
-11 4 -19 1 -7 -3 -11 -9 -8 -14 7 -12 44 -11 44 1 0 16 27 11 34 -6 5 -14 4
-15 -9 -4 -12 10 -16 9 -21 -3 -3 -10 -12 -13 -22 -9 -15 5 -15 3 -4 -11 8 -9
11 -21 7 -27 -3 -5 -1 -10 4 -10 6 0 11 6 11 14 0 15 42 27 58 17 6 -3 10 -43
10 -89 1 -45 4 -86 7 -92 8 -12 -29 -9 -41 4 -11 14 -15 48 -4 41 5 -3 12 -1
15 5 4 6 3 10 -2 9 -4 -1 -17 -1 -28 0 -16 1 -17 3 -5 10 8 6 17 8 21 5 4 -2
9 2 12 9 3 8 -3 14 -15 14 -10 1 -21 -4 -24 -12 -3 -8 -13 -11 -22 -8 -13 4
-12 2 2 -9 22 -17 32 -63 16 -73 -14 -9 6 -35 27 -35 8 0 11 -5 7 -11 -3 -6
-3 -14 2 -18 5 -3 20 -28 34 -55 31 -61 86 -118 140 -146 22 -11 38 -25 35
-30 -4 -6 1 -7 11 -3 12 4 15 3 10 -5 -5 -8 4 -12 29 -12 29 0 35 -4 33 -17
-2 -13 3 -18 20 -17 12 0 22 -3 22 -8 0 -4 4 -8 8 -8 5 0 9 7 9 15 0 9 -10 15
-24 15 -12 0 -23 5 -23 10 0 15 34 12 66 -5 16 -8 36 -15 44 -15 8 0 24 -7 34
-15 23 -17 36 -19 36 -5 0 6 -9 10 -20 10 -11 0 -20 4 -20 8 0 5 -10 14 -22
20 l-23 11 22 0 c36 1 109 38 151 75 22 20 42 36 46 36 11 0 6 -29 -6 -36 -7
-4 -8 -3 -4 4 11 19 2 14 -17 -9 -18 -20 -18 -21 2 -14 10 3 22 2 25 -3 3 -5
-10 -8 -28 -7 -30 1 -32 -1 -22 -17 6 -10 15 -18 21 -18 5 0 -6 -9 -25 -21
-19 -12 -51 -36 -70 -55 l-35 -33 -90 10 c-50 6 -227 12 -395 14 -258 3 -312
6 -348 20 -23 10 -42 20 -42 24 1 3 34 28 76 55 66 43 199 176 177 176 -4 0
-3 4 2 8 15 10 55 70 55 80 0 5 12 8 28 6 15 -2 19 -1 9 2 -22 7 -57 40 -57
54 0 6 -4 10 -10 10 -5 0 -6 -8 -3 -17 6 -16 5 -16 -11 -4 -9 8 -15 20 -12 27
3 7 0 16 -7 20 -7 4 -9 4 -5 -1 4 -4 0 -14 -10 -22 -9 -8 -11 -11 -4 -8 9 5
12 1 10 -11 -2 -11 2 -18 9 -17 7 2 10 -4 7 -12 -4 -8 -2 -15 4 -15 5 0 12 7
16 15 5 15 36 10 36 -6 0 -4 -6 -6 -13 -3 -7 2 -22 -4 -32 -16 -10 -11 -25
-20 -34 -20 -14 1 -14 2 1 11 10 5 15 16 12 24 -9 21 -21 18 -27 -6 -4 -13
-10 -18 -18 -13 -7 4 -10 3 -5 -4 10 -17 -33 -36 -85 -37 l-46 -1 28 45 c43
67 69 145 85 250 13 84 24 127 24 92 0 -8 8 -6 25 5 26 17 33 48 13 60 -7 5
-9 2 -6 -7 7 -18 -17 -53 -31 -45 -5 4 -22 -13 -36 -36 l-27 -43 6 56 c3 31
15 76 26 100 19 42 23 23 5 -26 -5 -15 -4 -16 3 -6 6 8 15 10 22 6 9 -5 11 -4
6 3 -4 7 -2 12 5 12 8 0 8 4 -1 15 -7 9 -10 18 -6 22 3 3 0 14 -8 22 -9 10
-12 22 -7 30 6 9 10 6 15 -13 10 -41 24 -31 37 29 13 58 19 64 39 40 7 -8 20
-15 29 -15 19 -1 72 -29 54 -30 -6 0 -19 -3 -27 -6 -12 -5 -15 -2 -10 10 3 9
1 16 -6 16 -6 0 -8 -4 -5 -10 3 -5 -2 -10 -12 -10 -18 -1 -63 -32 -63 -44 0
-4 8 -2 19 3 10 6 21 7 25 3 4 -3 4 1 0 11 -5 13 -1 17 17 17 19 0 21 -2 9
-10 -8 -5 -11 -12 -7 -17 5 -4 11 -2 15 4 4 6 16 13 27 15 16 2 19 -2 18 -20
-2 -14 4 -25 15 -28 9 -3 29 -12 43 -19 22 -12 26 -12 26 0 0 8 -4 12 -9 9
-10 -7 -38 14 -38 28 0 5 10 13 23 18 l22 9 -22 0 c-13 1 -23 -4 -23 -10 0 -8
-5 -7 -15 1 -9 7 -13 15 -11 18 3 2 49 6 103 7 54 2 129 10 168 18 38 9 73 13
77 11 4 -3 8 0 8 5 0 6 7 11 15 11 8 0 15 -7 15 -16 0 -8 4 -13 10 -9 5 3 7
12 4 19 -3 8 6 17 24 24 26 9 31 7 53 -22 61 -78 101 -145 94 -157 -5 -7 -4
-10 2 -6 16 10 24 -18 10 -33 -9 -10 -9 -11 1 -6 10 6 100 -54 150 -101 7 -7
15 -13 18 -13 2 0 3 6 2 13 -2 6 4 11 13 9 9 -1 24 7 34 18 10 11 13 20 7 20
-7 0 -12 -5 -12 -11 0 -5 -5 -7 -12 -3 -7 4 -8 3 -4 -4 8 -14 4 -15 -18 -6
-11 4 -13 10 -8 18 40 51 -3 176 -87 253 -25 24 -40 43 -33 43 6 0 12 -6 13
-12 1 -7 5 -2 9 12 5 17 8 19 9 8 1 -21 12 -23 29 -6 6 6 22 12 36 14 20 2 24
-1 21 -18 -4 -17 -2 -18 11 -7 8 7 13 18 10 25 -3 7 0 16 6 20 7 5 8 2 3 -6
-5 -9 -4 -11 3 -6 16 10 15 29 0 23 -7 -2 -21 2 -30 11 -13 10 -18 11 -18 3 0
-7 -5 -9 -12 -5 -7 4 -8 3 -4 -4 4 -6 14 -9 24 -6 14 5 15 4 2 -5 -8 -6 -22
-11 -31 -11 -9 0 -20 -7 -23 -17 -6 -15 -8 -14 -20 2 -9 13 -15 15 -20 6 -4
-6 -11 -9 -16 -6 -5 3 -15 -3 -22 -14 -14 -19 -15 -19 -61 8 l-47 28 25 11
c14 7 31 12 38 12 7 0 48 25 91 55 44 29 84 51 89 48 6 -3 7 -1 3 5 -4 6 2 20
14 32 11 11 20 16 20 11 0 -6 -4 -13 -10 -16 -15 -9 -12 -42 5 -49 12 -4 14 0
10 22 l-5 27 11 -25 c33 -69 39 -84 39 -97 0 -7 7 -13 15 -13 15 0 24 -28 22
-67 -1 -16 -8 -23 -22 -24 -19 0 -19 -1 3 -9 15 -6 22 -19 23 -37 1 -15 3 -35
4 -43 1 -8 3 -22 4 -30 1 -13 2 -13 11 0 8 12 10 11 10 -7 0 -26 15 -38 26
-21 4 6 7 37 7 67 -1 31 1 46 4 34 2 -13 9 -23 14 -23 5 0 6 12 3 26 -5 19 -4
25 5 20 6 -4 9 -12 5 -17 -3 -5 -2 -9 3 -8 4 1 21 1 37 0 25 -1 27 -3 15 -18
-10 -11 -10 -14 -1 -9 20 12 14 -5 -10 -25 -11 -11 -27 -19 -34 -19 -7 0 -16
-5 -19 -10 -4 -7 3 -8 21 -4 21 6 25 4 19 -7 -5 -8 -5 -11 -1 -7 5 4 19 2 33
-3 19 -7 24 -6 20 3 -2 7 -10 14 -18 14 -8 1 -18 2 -23 3 -5 0 1 12 13 25 13
14 20 29 17 35 -4 5 -2 12 3 15 11 7 23 -22 15 -35 -3 -5 0 -9 7 -9 8 0 9 -3
0 -14 -17 -20 14 -45 32 -26 10 10 9 12 -5 7 -19 -7 -24 3 -9 19 5 5 0 28 -12
54 -11 25 -22 39 -24 33 -3 -7 -19 -13 -36 -13 l-32 1 28 24 c15 14 25 25 21
25 -3 0 4 8 16 18 21 17 22 20 8 46 -13 26 -15 26 -29 10 -8 -10 -9 -15 -2
-11 8 5 11 0 10 -13 -1 -11 -8 -20 -15 -20 -25 0 -2 183 25 210 14 13 14 13 8
-7 -5 -17 -2 -23 9 -23 9 0 13 6 10 14 -3 8 -1 17 5 21 6 3 11 28 11 55 0 82
14 94 77 68z m-827 -673 c30 -8 44 -17 41 -26 -2 -8 -8 -50 -14 -93 -14 -122
14 -192 89 -216 73 -24 129 45 141 174 l6 64 58 -35 c66 -39 65 -36 26 -142
-51 -140 -194 -209 -343 -166 -47 13 -69 27 -109 68 -60 61 -82 105 -97 188
-8 47 -8 75 2 117 20 88 24 92 95 85 33 -4 80 -12 105 -18z m1820 -11 c2 -3 5
-51 5 -107 0 -92 -3 -108 -28 -159 -45 -92 -141 -160 -269 -188 -72 -16 -202
-9 -246 14 -81 42 -158 160 -175 268 l-6 37 52 15 c178 50 212 52 227 10 11
-29 4 -51 -21 -65 -24 -12 -24 -43 0 -96 23 -49 45 -63 99 -63 43 0 79 26 105
76 23 44 40 147 35 208 l-5 55 66 3 c72 3 153 -1 161 -8z m-1792 -661 c39 -3
72 -10 72 -15 0 -6 -15 -8 -34 -6 -19 2 -32 0 -30 -4 3 -4 0 -8 -5 -8 -6 0
-11 5 -11 10 0 6 -8 10 -17 10 -17 -1 -17 -2 0 -14 12 -9 14 -16 7 -21 -5 -3
-7 -11 -4 -17 4 -7 2 -8 -5 -4 -6 4 -9 11 -6 16 6 10 -13 24 -37 25 -23 2 -23
-4 3 -26 19 -17 20 -19 5 -25 -21 -8 -47 24 -40 49 3 9 0 17 -6 17 -6 0 -8 -4
-5 -10 3 -5 1 -10 -6 -10 -7 0 -9 -8 -6 -21 4 -14 2 -19 -7 -16 -7 3 -13 -1
-13 -9 0 -7 4 -11 8 -8 4 2 10 0 13 -5 4 -5 -3 -12 -14 -16 -11 -3 -20 -9 -20
-13 0 -13 -57 -7 -76 8 -10 8 -16 11 -12 6 11 -13 -29 -49 -47 -42 -9 3 -14
10 -11 15 9 15 -24 43 -38 33 -14 -12 -76 -3 -76 10 0 5 5 6 10 3 6 -3 10 -1
10 4 0 6 -9 11 -20 11 -18 0 -19 -3 -10 -21 15 -27 6 -36 -15 -15 -23 22 -28
20 -14 -6 12 -23 12 -23 -10 -4 -22 20 -29 56 -10 56 5 0 7 -5 3 -11 -5 -8 -1
-8 14 0 33 17 37 61 6 61 -17 0 -18 -22 -3 -37 8 -8 0 -10 -32 -6 -49 6 -78
23 -34 20 17 -1 29 4 32 13 4 13 3 13 -6 0 -6 -8 -11 -10 -11 -4 0 8 -11 10
-32 5 -18 -4 -47 -7 -65 -6 -26 1 -33 -3 -38 -22 -3 -13 -3 -29 1 -35 4 -6
-14 3 -39 21 -50 34 -55 39 -34 38 6 -1 33 2 58 7 112 19 489 30 657 19z
m2080 -38 c3 -2 -1 -12 -8 -20 -11 -13 -11 -18 0 -28 10 -9 11 -9 6 1 -4 6 0
20 9 29 15 15 18 15 33 -1 16 -16 16 -17 0 -10 -14 5 -18 1 -18 -20 0 -27 -14
-33 -40 -16 -9 6 -17 5 -22 -3 -11 -17 -10 -47 1 -47 5 0 7 9 4 20 -7 26 3 26
18 -2 10 -18 8 -24 -7 -35 -15 -11 -15 -13 -2 -13 13 0 14 -6 8 -34 -4 -18
-10 -39 -14 -45 -18 -28 -136 -65 -136 -42 0 6 -5 11 -11 11 -5 0 -7 -5 -4
-10 4 -6 -31 4 -77 21 -106 40 -271 84 -378 101 l-83 13 -24 53 c-12 29 -23
54 -23 56 0 2 84 8 188 15 103 6 212 13 242 15 70 5 331 -2 338 -9z m-2052
-162 c3 -64 6 -69 40 -68 32 2 32 1 31 -42 -2 -42 -17 -63 -17 -23 0 11 -5 20
-11 20 -6 0 -9 7 -5 15 3 9 0 15 -9 15 -8 0 -12 -6 -9 -14 7 -18 -15 -31 -29
-17 -8 8 -8 11 2 11 7 0 9 5 6 10 -3 6 -13 10 -21 10 -8 0 -12 -4 -9 -10 3 -5
2 -10 -4 -10 -22 0 -19 18 4 28 24 11 35 42 16 42 -5 0 -7 10 -4 23 4 20 3 20
-7 4 -8 -13 -9 -22 -1 -31 11 -13 5 -26 -11 -26 -5 0 -6 5 -3 11 4 6 -3 13
-16 16 -22 6 -22 7 -3 15 17 7 16 8 -3 4 -24 -4 -32 9 -10 17 6 3 2 4 -10 4
-18 -1 -20 -4 -11 -20 13 -25 1 -35 -16 -12 -10 14 -15 15 -21 5 -5 -9 -4 -11
3 -6 7 4 12 3 12 -1 0 -5 -12 -13 -26 -19 l-26 -9 22 -27 c12 -16 17 -28 12
-28 -6 0 -12 6 -15 13 -2 6 -8 9 -12 5 -4 -4 -2 -16 6 -25 13 -16 12 -17 -3
-4 -10 7 -18 9 -18 5 0 -5 9 -15 21 -22 12 -8 18 -9 15 -4 -7 12 22 37 32 27
4 -4 1 -10 -6 -12 -13 -5 -7 -23 9 -23 14 0 11 48 -3 53 -7 3 3 5 22 4 29 -2
36 -7 38 -26 3 -18 6 -21 12 -11 12 19 60 -3 60 -27 0 -15 -2 -15 -16 3 -13
16 -15 16 -10 2 3 -10 1 -20 -4 -23 -10 -6 -5 -60 8 -79 4 -6 7 -20 7 -31 0
-12 7 -20 17 -20 9 0 20 -4 24 -8 13 -13 54 -7 60 8 8 19 24 20 24 1 0 -29
-51 -34 -129 -10 -33 10 -51 20 -48 28 3 7 -4 13 -15 13 -20 2 -51 34 -41 43
2 3 11 -4 19 -14 13 -19 14 -19 14 5 -1 24 -29 85 -30 63 0 -9 -70 -27 -70
-18 0 1 -3 10 -7 20 -5 13 -3 15 8 8 18 -11 59 -13 59 -2 0 4 -12 8 -26 8 -14
0 -34 4 -44 10 -15 8 -17 6 -13 -10 3 -11 3 -20 0 -20 -17 0 -39 15 -49 34
-10 19 -10 20 6 7 16 -13 16 -12 5 12 -12 27 -33 39 -23 13 8 -20 -11 -28 -38
-16 -29 14 -52 60 -37 74 7 8 8 5 3 -9 -7 -17 -5 -18 8 -8 15 13 28 8 28 -9 0
-5 -6 -6 -12 -2 -10 5 -10 4 -2 -5 6 -6 18 -9 28 -5 15 6 15 8 -4 21 -22 15
-19 33 6 33 9 0 12 -5 8 -11 -4 -7 1 -9 12 -7 11 2 18 9 17 15 -2 9 5 10 36 4
2 -1 -2 -7 -8 -15 -9 -11 -9 -15 1 -19 10 -4 8 -9 -5 -20 -13 -11 -15 -17 -7
-22 7 -4 19 0 28 8 12 13 13 19 3 30 -9 12 -8 18 4 30 8 9 15 17 15 19 0 17
-194 -14 -206 -33 -3 -5 1 -6 9 -3 11 4 14 -3 14 -23 0 -15 -2 -22 -4 -15 -3
6 -9 9 -15 6 -5 -3 -12 3 -15 15 -3 12 -9 21 -14 21 -5 0 -5 -8 -2 -17 5 -12
2 -15 -10 -10 -9 3 -17 4 -17 2 0 -10 75 -35 87 -30 9 3 11 0 7 -7 -4 -6 -3
-9 2 -5 5 3 25 -3 44 -14 19 -10 29 -18 22 -19 -15 0 -225 80 -220 85 9 9 257
69 348 85 140 24 135 25 136 -7z"/>
<path d="M3423 1657 c-13 -15 -15 -21 -5 -24 6 -3 12 -9 12 -15 0 -6 -7 -8
-15 -4 -10 4 -15 -2 -17 -17 -2 -41 -3 -44 -16 -60 -8 -9 -19 -14 -27 -11 -7
3 -16 0 -21 -7 -5 -9 -2 -10 10 -6 12 5 16 3 14 -5 -3 -7 -11 -13 -19 -13 -8
-1 -13 -7 -11 -15 3 -14 -89 -114 -122 -132 -13 -7 -16 -7 -12 1 13 20 -11 11
-47 -18 -20 -15 -50 -34 -67 -41 -18 -8 -30 -20 -30 -31 0 -24 24 -24 47 -1
10 10 47 35 83 55 65 35 148 114 205 195 20 28 36 41 48 38 11 -3 17 2 17 13
0 9 3 21 8 27 4 5 0 1 -10 -8 -9 -10 -23 -18 -31 -18 -22 0 -9 38 15 46 18 5
18 7 3 24 -15 16 -15 18 0 24 22 8 27 8 21 -2 -2 -4 5 -9 17 -9 17 -2 19 0 7
7 -12 8 -13 10 -1 10 21 0 4 13 -19 15 -11 1 -28 -7 -37 -18z"/>
<path d="M1100 1581 c11 -21 10 -23 -5 -17 -15 5 -16 4 -5 -9 7 -8 16 -12 21
-9 12 7 11 -13 -2 -38 -8 -15 -8 -22 1 -28 8 -5 8 -10 2 -14 -5 -3 -16 1 -23
10 -10 13 -10 17 2 25 10 6 11 9 1 9 -7 0 -11 4 -8 8 3 5 -1 9 -9 9 -8 0 -15
-8 -15 -18 0 -12 -6 -16 -20 -12 -11 3 -17 9 -14 14 3 5 10 7 15 3 6 -3 5 3
-3 15 -15 24 -33 27 -41 7 -4 -10 -1 -13 8 -10 9 4 13 -1 12 -15 -1 -13 -5
-17 -12 -11 -7 6 -16 2 -26 -12 -8 -11 -25 -32 -39 -46 -14 -14 -16 -19 -6
-11 18 13 19 13 8 -8 -7 -12 -21 -25 -32 -28 -23 -7 -27 -35 -5 -35 8 0 19 10
26 21 9 18 13 19 21 8 8 -11 9 -11 5 1 -10 34 33 60 62 38 14 -12 15 -11 2 5
-12 15 -11 17 13 17 15 0 25 4 21 10 -4 6 -15 6 -31 0 -35 -14 -54 -12 -48 3
5 13 10 15 58 18 27 2 106 -43 88 -49 -7 -2 -12 -11 -12 -20 0 -15 2 -15 10
-2 9 13 13 11 29 -10 11 -13 17 -28 14 -32 -2 -5 -1 -7 4 -6 4 1 19 -5 33 -14
14 -9 43 -22 65 -29 22 -8 43 -18 47 -24 5 -7 8 -7 8 0 0 6 4 4 9 -4 5 -8 39
-22 75 -31 69 -17 90 -10 32 11 -21 8 -32 17 -29 26 3 7 0 13 -6 13 -6 0 -10
-5 -9 -11 2 -6 -3 -14 -9 -16 -7 -3 -13 0 -13 7 0 6 -4 8 -10 5 -5 -3 -10 1
-10 10 0 10 -5 13 -12 9 -6 -4 -16 -1 -22 7 -6 8 -32 28 -58 44 -47 30 -60 45
-36 45 7 0 3 10 -9 23 -49 50 -61 66 -55 72 4 4 1 5 -6 3 -8 -2 -19 13 -27 36
-7 21 -19 44 -25 50 -9 8 -9 5 0 -13z"/>
<path d="M1953 1432 c-12 -2 -34 -17 -48 -33 -45 -54 -26 -130 45 -183 22 -17
40 -36 40 -43 0 -6 11 -22 24 -35 16 -16 26 -39 30 -74 l6 -52 -43 -26 c-74
-43 -143 -134 -120 -157 8 -8 27 2 66 34 30 24 75 52 101 62 64 24 108 11 231
-69 54 -36 102 -63 107 -60 12 8 -26 57 -79 103 -45 38 -106 73 -185 105 -37
14 -38 17 -38 63 0 44 3 49 32 63 18 8 39 28 48 45 11 19 27 32 47 36 91 18
133 108 77 163 -8 9 -12 16 -8 16 3 0 1 6 -5 14 -10 11 -33 14 -104 11 -51 -2
-117 2 -147 9 -30 6 -65 10 -77 8z"/>
<path d="M3321 1401 c-8 -5 -11 -16 -8 -25 6 -16 -3 -20 -33 -16 -10 1 -9 -3
5 -14 11 -8 25 -16 32 -16 7 0 16 -7 21 -17 5 -9 18 -17 28 -18 11 0 25 -4 32
-9 7 -4 15 -1 18 8 3 9 11 13 17 9 12 -7 41 -13 69 -14 14 0 15 -3 5 -14 -10
-11 -15 -10 -31 3 -18 16 -18 16 -12 -5 4 -13 4 -23 1 -23 -4 0 -15 10 -26 23
l-18 22 -1 -27 c0 -15 5 -30 10 -33 6 -3 10 -1 10 5 0 6 4 9 10 5 13 -8 80 21
80 35 0 6 5 8 11 4 8 -4 7 -9 -2 -15 -11 -7 -11 -9 1 -9 9 0 11 -3 5 -8 -21
-15 -12 -28 18 -27 18 0 38 -4 45 -9 8 -6 12 -2 12 12 0 26 -16 37 -24 17 -8
-21 -36 -19 -36 3 0 14 2 15 10 2 5 -8 12 -12 15 -8 10 10 -18 48 -40 55 -11
3 -26 14 -33 24 -7 11 -18 19 -24 19 -6 0 -3 -10 8 -22 18 -20 18 -21 1 -15
-10 4 -23 7 -29 7 -6 0 -8 7 -4 15 3 9 0 15 -9 15 -9 0 -12 -6 -9 -15 8 -20
-6 -19 -22 3 -13 16 -14 16 -8 0 5 -14 1 -18 -15 -18 -12 0 -21 5 -21 10 0 6
5 10 12 10 9 0 9 3 0 12 -15 15 -16 32 -1 22 6 -3 3 5 -6 20 -18 27 -39 32
-64 17z"/>
</g>
</svg>
